<svg width="24" height="24" viewBox="0 0 24 24" fill="none" xmlns="http://www.w3.org/2000/svg">
<path d="M16 11.75C16 12.1642 15.6642 12.5 15.25 12.5C14.8358 12.5 14.5 12.1642 14.5 11.75C14.5 11.3358 14.8358 11 15.25 11C15.6642 11 16 11.3358 16 11.75Z" fill="#36485C"/>
<path d="M12 16C12.4142 16 12.75 15.6642 12.75 15.25C12.75 14.8358 12.4142 14.5 12 14.5C11.5858 14.5 11.25 14.8358 11.25 15.25C11.25 15.6642 11.5858 16 12 16Z" fill="#36485C"/>
<path d="M12.75 11.75C12.75 12.1642 12.4142 12.5 12 12.5C11.5858 12.5 11.25 12.1642 11.25 11.75C11.25 11.3358 11.5858 11 12 11C12.4142 11 12.75 11.3358 12.75 11.75Z" fill="#36485C"/>
<path d="M15.25 16C15.6642 16 16 15.6642 16 15.25C16 14.8358 15.6642 14.5 15.25 14.5C14.8358 14.5 14.5 14.8358 14.5 15.25C14.5 15.6642 14.8358 16 15.25 16Z" fill="#36485C"/>
<path d="M9.5 11.75C9.5 12.1642 9.16421 12.5 8.75 12.5C8.33579 12.5 8 12.1642 8 11.75C8 11.3358 8.33579 11 8.75 11C9.16421 11 9.5 11.3358 9.5 11.75Z" fill="#36485C"/>
<path d="M8.75 16C9.16421 16 9.5 15.6642 9.5 15.25C9.5 14.8358 9.16421 14.5 8.75 14.5C8.33579 14.5 8 14.8358 8 15.25C8 15.6642 8.33579 16 8.75 16Z" fill="#36485C"/>
<path fill-rule="evenodd" clip-rule="evenodd" d="M15 6V5.25C15 5.11193 14.8881 5 14.75 5H14.25C14.1119 5 14 5.11193 14 5.25V6H10V5.25C10 5.11193 9.88807 5 9.75 5H9.25C9.11193 5 9 5.11193 9 5.25V6H6.25C6.11193 6 6 6.1092 6 6.24727V17.7539C6 17.892 6.1092 18 6.24727 18H17.7539C17.892 18 18 17.8908 18 17.7527V6.24606C18 6.10799 17.8881 6 17.75 6H15ZM17 10V17H7V10H17ZM17 9H7V7H9V7.75C9 7.88807 9.11193 8 9.25 8H9.75C9.88807 8 10 7.88807 10 7.75V7H14V7.75C14 7.88807 14.1119 8 14.25 8H14.75C14.8881 8 15 7.88807 15 7.75V7H17V9Z" fill="#36485C"/>
</svg>
