<svg width="24" height="24" viewBox="0 0 24 24" fill="none" xmlns="http://www.w3.org/2000/svg">
<path d="M12.306 5.10687C12.2173 5.03762 12.1079 5 11.9953 5C11.8828 5 11.7734 5.03762 11.6847 5.10687L4.69833 10.5549C4.58893 10.6402 4.56991 10.7983 4.65596 10.9071L4.9672 11.3007C5.05242 11.4085 5.20866 11.4273 5.31703 11.3428L5.99985 10.8104V17.75C5.99985 17.888 6.11178 18 6.24985 18C10.0831 17.9999 13.9164 17.9975 17.7497 17.9998C17.8878 17.9999 17.9999 17.8879 17.9999 17.7498V10.815L18.6827 11.3473C18.791 11.4318 18.9473 11.413 19.0325 11.3052L19.3437 10.9115C19.4298 10.8027 19.4107 10.6446 19.3013 10.5593L12.306 5.10687ZM12.9999 17H10.9999V13H12.9999V17ZM13.9999 17V12.25C13.9999 12.1119 13.8879 12 13.7499 12H10.2499C10.1118 12 9.99985 12.1119 9.99985 12.25V17H6.99985V10.0307L11.9999 6.13572L16.9999 10.036V17H13.9999Z" fill="#36485C"/>
</svg>
