<svg width="24" height="24" viewBox="0 0 24 24" fill="none" xmlns="http://www.w3.org/2000/svg">
<path fill-rule="evenodd" clip-rule="evenodd" d="M10.3334 14.4945C10.8268 14.8241 11.4068 15.0001 12.0002 15.0001C12.3952 15.0041 12.7872 14.9292 13.1529 14.7799C13.5187 14.6305 13.851 14.4097 14.1304 14.1303C14.4098 13.8509 14.6306 13.5186 14.78 13.1528C14.9293 12.787 15.0042 12.3951 15.0002 12.0001C15.0002 11.4067 14.8242 10.8267 14.4946 10.3333C14.1649 9.84 13.6964 9.45548 13.1482 9.22842C12.6 9.00135 11.9968 8.94194 11.4149 9.0577C10.8329 9.17346 10.2984 9.45918 9.87884 9.87873C9.45928 10.2983 9.17356 10.8328 9.0578 11.4148C8.94205 11.9967 9.00146 12.5999 9.22852 13.1481C9.45558 13.6963 9.8401 14.1648 10.3334 14.4945ZM11.2276 10.1398C11.473 10.0414 11.7358 9.9939 12.0002 10.0001C12.2645 9.9939 12.5273 10.0414 12.7728 10.1398C13.0182 10.2381 13.2411 10.3852 13.4281 10.5721C13.615 10.7591 13.7621 10.982 13.8605 11.2275C13.9588 11.4729 14.0063 11.7357 14.0002 12.0001C14.0063 12.2644 13.9588 12.5272 13.8605 12.7726C13.7621 13.0181 13.615 13.241 13.4281 13.428C13.2411 13.6149 13.0182 13.762 12.7728 13.8604C12.5273 13.9587 12.2645 14.0062 12.0002 14.0001C11.7358 14.0062 11.473 13.9587 11.2276 13.8604C10.9821 13.762 10.7592 13.6149 10.5722 13.428C10.3853 13.241 10.2382 13.0181 10.1399 12.7726C10.0415 12.5272 9.994 12.2644 10.0002 12.0001C9.994 11.7357 10.0415 11.4729 10.1399 11.2275C10.2382 10.982 10.3853 10.7591 10.5722 10.5721C10.7592 10.3852 10.9821 10.2381 11.2276 10.1398Z" fill="#36485C"/>
<path fill-rule="evenodd" clip-rule="evenodd" d="M17.5002 12.3801C17.9679 12.8082 18.4367 13.2342 18.9115 13.6543C19.0014 13.7338 19.0225 13.8658 18.9619 13.9694C18.7074 14.4043 18.4577 14.842 18.208 15.2797C17.8743 15.8649 17.5405 16.45 17.1953 17.0284C17.136 17.1279 17.0158 17.1731 16.9056 17.1375C16.3311 16.9521 15.7596 16.7584 15.1878 16.5647L15.1152 16.5401C14.9037 16.6795 14.6832 16.8048 14.4552 16.9151C14.4195 17.0914 14.3839 17.2677 14.3483 17.4441C14.2582 17.8901 14.1682 18.3362 14.0768 18.782C14.0531 18.8975 13.9518 18.9807 13.8339 18.9815C12.6254 18.9896 11.4162 18.9896 10.2076 18.9815C10.0899 18.9807 9.98881 18.8979 9.96492 18.7827C9.86557 18.3035 9.76873 17.8239 9.6719 17.3442C9.64301 17.2012 9.61413 17.0581 9.58518 16.9151C9.35876 16.8047 9.13995 16.6795 8.93018 16.5401C8.32974 16.7427 7.72928 16.9448 7.12712 17.1422C7.0144 17.1792 6.89132 17.1316 6.83247 17.0286C6.24264 15.9962 5.64317 14.9681 5.01501 13.9586C4.94864 13.8519 4.97125 13.7126 5.06763 13.632C5.55353 13.2257 6.02655 12.8061 6.50017 12.3851V11.6201L5.07413 10.3256C4.98432 10.244 4.96604 10.1098 5.03034 10.007C5.66178 8.99718 6.26426 7.9691 6.85232 6.93339C6.91267 6.8271 7.04093 6.77982 7.15575 6.82171L8.90518 7.46006C9.11666 7.32063 9.33714 7.19536 9.56518 7.08506C9.58606 6.98189 9.60686 6.8787 9.62766 6.77552C9.73278 6.25408 9.83789 5.73271 9.95295 5.21335C9.97805 5.10005 10.0783 5.01941 10.1944 5.01873C10.7157 5.01567 11.237 5.01602 11.7583 5.01637C12.4356 5.01683 13.1129 5.01729 13.7902 5.01027C13.9107 5.00902 14.0152 5.09369 14.0387 5.21192C14.1628 5.83658 14.2888 6.46084 14.4152 7.08506C14.6416 7.19538 14.8604 7.32066 15.0702 7.46006C15.6693 7.25789 16.2685 7.05637 16.869 6.85846C16.9812 6.82151 17.1038 6.86824 17.1632 6.97029C17.7571 7.99061 18.3604 9.0053 18.9637 10.02L18.9825 10.0517C19.0448 10.1564 19.0225 10.2906 18.93 10.3699C18.538 10.7061 18.1496 11.0463 17.7612 11.3865C17.6742 11.4627 17.5872 11.5389 17.5002 11.6151V12.3801ZM14.8902 15.4201L16.6052 16.0001L17.7852 14.0001L16.4252 12.7651C16.5176 12.2475 16.5176 11.7176 16.4252 11.2001L17.7852 10.0001L16.6052 8.00006L14.8852 8.56006C14.4823 8.22463 14.026 7.95927 13.5352 7.77506L13.1802 6.00006H10.8202L10.4652 7.79506C9.97048 7.97419 9.51164 8.24 9.11018 8.58006L7.39518 8.00006L6.21517 10.0001L7.57518 11.2351C7.48272 11.7526 7.48272 12.2825 7.57518 12.8001L6.21517 14.0001L7.39518 16.0001L9.11518 15.4401C9.51803 15.7755 9.97439 16.0408 10.4652 16.2251L10.8202 18.0001H13.1802L13.5352 16.2051C14.0299 16.0259 14.4887 15.7601 14.8902 15.4201Z" fill="#36485C"/>
</svg>
