<svg width="24" height="24" viewBox="0 0 24 24" fill="none" xmlns="http://www.w3.org/2000/svg">
<path d="M12.0117 9.31348C12.0901 9.29706 12.1565 9.3143 12.2119 9.36475C12.2419 9.39175 12.2699 9.44457 12.2969 9.52295C12.3989 9.82443 12.5668 10.3245 12.8008 11.0229C12.8023 11.0279 12.8056 11.0322 12.8096 11.0347C12.814 11.0376 12.8193 11.0396 12.8242 11.0396C13.4326 11.0391 13.979 11.0395 14.4624 11.04C14.5654 11.04 14.6381 11.0536 14.6816 11.0801C14.8225 11.1666 14.8295 11.3471 14.6816 11.4551C14.2026 11.8071 13.7343 12.1453 13.2783 12.4683C13.2727 12.4722 13.2683 12.4779 13.2661 12.4844C13.264 12.4909 13.2643 12.4979 13.2666 12.5044C13.3421 12.7224 13.524 13.2509 13.812 14.0898C13.8385 14.1668 13.817 14.2424 13.7485 14.3169C13.697 14.3734 13.6383 14.3986 13.5723 14.3921C13.5328 14.388 13.4799 14.3623 13.4141 14.3154C12.9786 14.0055 12.5322 13.6869 12.0742 13.3589C12.0696 13.3556 12.0638 13.354 12.0581 13.354C12.0524 13.354 12.0467 13.3557 12.042 13.3589C11.3045 13.8839 10.8427 14.2123 10.6567 14.3433C10.5618 14.4106 10.4688 14.4079 10.3794 14.3359C10.264 14.2425 10.2816 14.1389 10.3281 14.0024L10.8403 12.5142C10.8478 12.4927 10.8422 12.4749 10.8232 12.4614C10.1534 11.9905 9.67836 11.6564 9.40039 11.46C9.32998 11.41 9.30662 11.3315 9.33008 11.2236C9.35658 11.1011 9.44008 11.0396 9.58008 11.0396C10.4925 11.0396 11.0612 11.0391 11.2856 11.0371C11.2914 11.0372 11.2971 11.0355 11.3018 11.0322C11.3065 11.0289 11.3096 11.024 11.3115 11.0186C11.5745 10.2421 11.7462 9.7304 11.8267 9.4834C11.8382 9.4405 11.8618 9.40164 11.8945 9.37158C11.9273 9.34157 11.968 9.32133 12.0117 9.31348Z" fill="#36485C"/>
<path fill-rule="evenodd" clip-rule="evenodd" d="M9.87109 5C9.99074 5 10.0917 5.08551 10.1274 5.19971C10.2347 5.54347 10.4398 5.83566 10.7422 6.07617C11.1015 6.36201 11.5209 6.50488 12 6.50488C12.4791 6.50488 12.8956 6.36201 13.249 6.07617C13.5481 5.83417 13.7551 5.53989 13.8696 5.19336C13.9064 5.0821 14.0059 5 14.123 5H17.25C17.3881 5 17.5 5.11193 17.5 5.25V18.75C17.5 18.8881 17.3881 19 17.25 19H14.123C14.0059 19 13.9064 18.9179 13.8696 18.8066C13.7551 18.4601 13.5481 18.1658 13.249 17.9238C12.8956 17.638 12.4791 17.4951 12 17.4951C11.5209 17.4951 11.1015 17.638 10.7422 17.9238C10.4398 18.1643 10.2347 18.4565 10.1274 18.8003C10.0917 18.9145 9.99074 19 9.87109 19H6.75C6.61193 19 6.5 18.8881 6.5 18.75V5.25C6.5 5.11193 6.61193 5 6.75 5H9.87109ZM7.5 18H9.38672C9.56864 17.6692 9.8168 17.382 10.1196 17.1411C10.6641 16.7081 11.3054 16.4951 12 16.4951C12.6947 16.4951 13.3364 16.7085 13.8779 17.1465C14.1761 17.3877 14.4209 17.6732 14.603 18H16.5V6H14.603C14.4209 6.32687 14.1762 6.61272 13.8779 6.854C13.3364 7.29199 12.6947 7.50488 12 7.50488C11.3054 7.50488 10.6641 7.29194 10.1196 6.85889C9.8168 6.61802 9.56864 6.33079 9.38672 6H7.5V18Z" fill="#36485C"/>
</svg>
