<svg width="16" height="16" viewBox="0 0 16 16" fill="none" xmlns="http://www.w3.org/2000/svg">
<path fill-rule="evenodd" clip-rule="evenodd" d="M9.5 1.5C12.2614 1.5 14.5 3.73858 14.5 6.5V9.5C14.5 12.2614 12.2614 14.5 9.5 14.5H6.5C3.73858 14.5 1.5 12.2614 1.5 9.5V6.5C1.5 3.73858 3.73858 1.5 6.5 1.5H9.5ZM7.17679 10.5302C7.07915 10.6279 6.92086 10.6278 6.82323 10.5302L4.67674 8.38328C4.57913 8.28564 4.57913 8.12737 4.67676 8.02974L5.02975 7.67675C5.12737 7.57913 5.28564 7.57912 5.38328 7.67673L7 9.293L10.6157 5.6768C10.7134 5.57916 10.8717 5.57915 10.9693 5.67679L11.3232 6.03071C11.4208 6.12835 11.4208 6.28665 11.3232 6.38428L7.17679 10.5302Z" fill="#0273E3"/>
</svg>
