<svg width="24" height="24" viewBox="0 0 24 24" fill="none" xmlns="http://www.w3.org/2000/svg">
<g clip-path="url(#clip0_119_7913)">
<path d="M17.0001 7V8.085L6.82013 9.935C6.58718 9.9776 6.3769 10.1015 6.22673 10.2846C6.07657 10.4677 5.99627 10.6982 6.00013 10.935V13.105C5.99627 13.3418 6.07657 13.5723 6.22673 13.7554C6.3769 13.9385 6.58718 14.0624 6.82013 14.105L8.00013 14.28V16C8.00013 16.2652 8.10549 16.5196 8.29303 16.7071C8.48056 16.8946 8.73492 17 9.00013 17H13.0001C13.2653 17 13.5197 16.8946 13.7072 16.7071C13.8948 16.5196 14.0001 16.2652 14.0001 16V15.37L17.0001 15.915V17H18.0001V7H17.0001ZM13.0001 16H9.00013V14.465L13.0001 15.19V16ZM7.00013 13.085V10.915L17.0001 9.1V14.9L7.00013 13.085Z" fill="#0D3673"/>
</g>
<defs>
<clipPath id="clip0_119_7913">
<rect width="16" height="16" fill="white" transform="translate(4 4)"/>
</clipPath>
</defs>
</svg>
