<svg width="24" height="24" viewBox="0 0 24 24" fill="none" xmlns="http://www.w3.org/2000/svg">
<path d="M7.76511 12.4848C7.61866 12.6313 7.61866 12.8687 7.76511 13.0152L11.7348 16.9848C11.8812 17.1313 12.1187 17.1313 12.2651 16.9848L16.2348 13.0152C16.3812 12.8687 16.3812 12.6313 16.2348 12.4848L15.7046 11.9547C15.5582 11.8082 15.3207 11.8082 15.1743 11.9547L12.7499 14.379V3.375C12.7499 3.16789 12.5821 3 12.3749 3H11.6249C11.4178 3 11.2499 3.16789 11.2499 3.375V14.379L8.82561 11.9547C8.67916 11.8082 8.44173 11.8082 8.29528 11.9547L7.76511 12.4848Z" fill="#36485C"/>
<path d="M3.375 15C3.16789 15 3 15.1679 3 15.375V20.625C3 20.8321 3.16789 21 3.375 21H20.625C20.8321 21 21 20.8321 21 20.625V15.375C21 15.1679 20.8321 15 20.625 15H19.875C19.6679 15 19.5 15.1679 19.5 15.375V19.5H4.5V15.375C4.5 15.1679 4.33211 15 4.125 15H3.375Z" fill="#36485C"/>
</svg>
