<svg width="24" height="24" viewBox="0 0 24 24" fill="none" xmlns="http://www.w3.org/2000/svg">
<path fill-rule="evenodd" clip-rule="evenodd" d="M3 3.375C3 3.16789 3.16789 3 3.375 3H20.625C20.8321 3 21 3.16789 21 3.375V5.01472C21 6.80493 20.2888 8.52182 19.023 9.78769L15 13.8107V20.625C15 20.8321 14.8321 21 14.625 21H9.375C9.16789 21 9 20.8321 9 20.625V13.8107L4.97703 9.78769C3.71116 8.52182 3 6.80493 3 5.01472V3.375ZM4.5 4.5V5.01472C4.5 6.4071 5.05312 7.74246 6.03769 8.72703L10.5 13.1893V19.5H13.5V13.1893L17.9623 8.72703C18.9469 7.74246 19.5 6.40711 19.5 5.01472V4.5H4.5Z" fill="#36485C"/>
</svg>
