<svg width="24" height="24" viewBox="0 0 24 24" fill="none" xmlns="http://www.w3.org/2000/svg">
<path d="M11.1893 14.2958C11.1893 14.4008 11.2418 14.4532 11.3467 14.4532H12.5595C12.6645 14.4532 12.717 14.4008 12.717 14.2958V13.587C12.717 13.3035 12.801 13.062 12.969 12.8625C13.1475 12.663 13.4205 12.4268 13.788 12.1538C14.1345 11.9018 14.418 11.6707 14.6385 11.4608C14.859 11.2403 15.048 10.962 15.2055 10.626C15.363 10.29 15.4418 9.891 15.4418 9.429C15.4418 8.568 15.153 7.875 14.5755 7.35C13.998 6.825 13.2315 6.5625 12.276 6.5625C11.6355 6.5625 11.0633 6.6885 10.5593 6.9405C10.0657 7.182 9.6825 7.5285 9.4095 7.98C9.1365 8.421 9 8.93025 9 9.50775V9.85425C9 9.95925 9.0525 10.0118 9.1575 10.0118L10.3545 10.0748C10.4595 10.0748 10.512 10.0223 10.512 9.91725V9.50775C10.512 9.03525 10.6695 8.65725 10.9845 8.37375C11.2995 8.07975 11.7143 7.93275 12.2288 7.93275C12.7328 7.93275 13.137 8.0745 13.4415 8.358C13.7565 8.631 13.914 9.00375 13.914 9.47625C13.914 9.88575 13.8038 10.2218 13.5833 10.4843C13.3628 10.7468 13.0373 11.0408 12.6068 11.3663C12.1448 11.7128 11.793 12.0383 11.5515 12.3428C11.31 12.6473 11.1893 13.0358 11.1893 13.5083V14.2958Z" fill="#36485C"/>
<path d="M11.1893 17.43C11.3783 17.619 11.6198 17.7135 11.9138 17.7135C12.2078 17.7135 12.4492 17.619 12.6382 17.43C12.8273 17.241 12.9218 16.9995 12.9218 16.7055C12.9218 16.4115 12.8273 16.17 12.6382 15.981C12.4492 15.792 12.2078 15.6975 11.9138 15.6975C11.6198 15.6975 11.3783 15.792 11.1893 15.981C11.0002 16.17 10.9058 16.4115 10.9058 16.7055C10.9058 16.9995 11.0002 17.241 11.1893 17.43Z" fill="#36485C"/>
<path fill-rule="evenodd" clip-rule="evenodd" d="M21.75 12C21.75 17.3848 17.3848 21.75 12 21.75C6.61522 21.75 2.25 17.3848 2.25 12C2.25 6.61522 6.61522 2.25 12 2.25C17.3848 2.25 21.75 6.61522 21.75 12ZM20.25 12C20.25 16.5563 16.5563 20.25 12 20.25C7.44365 20.25 3.75 16.5563 3.75 12C3.75 7.44365 7.44365 3.75 12 3.75C16.5563 3.75 20.25 7.44365 20.25 12Z" fill="#36485C"/>
</svg>
