<svg width="24" height="24" viewBox="0 0 24 24" fill="none" xmlns="http://www.w3.org/2000/svg">
<path fill-rule="evenodd" clip-rule="evenodd" d="M15.8481 16.4427C16.0126 16.5685 16.25 16.4512 16.25 16.2441V13.5H17C18.1046 13.5 19 12.6046 19 11.5V7.5C19 6.39543 18.1046 5.5 17 5.5H9C7.89543 5.5 7 6.39543 7 7.5V11.5C5.89543 11.5 5 12.3954 5 13.5V15.2805C5 16.2459 5.68397 17.0515 6.59375 17.2392V18.4653C6.59375 19.1017 7.33634 19.4489 7.82465 19.0408L9.9314 17.2805H12C13.1046 17.2805 14 16.3851 14 15.2805V15.0294L15.8481 16.4427ZM17 12.5H15.25V14.7264L12.3385 12.5H9C8.44772 12.5 8 12.0523 8 11.5V7.5C8 6.94772 8.44772 6.5 9 6.5H17C17.5523 6.5 18 6.94772 18 7.5V11.5C18 12.0523 17.5523 12.5 17 12.5ZM13 14.2647L12 13.5H9C8.25972 13.5 7.61337 13.0978 7.26756 12.5H7C6.44772 12.5 6 12.9477 6 13.5V15.2805C6 15.8328 6.44772 16.2805 7 16.2805H7.59375V17.9306L9.5686 16.2805H12C12.5523 16.2805 13 15.8328 13 15.2805V14.2647Z" fill="#36485C"/>
</svg>
