<svg width="24" height="24" viewBox="0 0 24 24" fill="none" xmlns="http://www.w3.org/2000/svg">
<path fill-rule="evenodd" clip-rule="evenodd" d="M11.5 5.25C11.5 5.11193 11.6119 5 11.75 5H12.25C12.3881 5 12.5 5.11193 12.5 5.25V6.02469C15.0267 6.27555 17 8.40733 17 11V12.5C17 12.7875 17.0704 12.9699 17.1504 13.0898C17.2324 13.2129 17.3454 13.3012 17.4736 13.3653C17.6037 13.4304 17.7399 13.4654 17.8478 13.4834C17.9006 13.4922 17.9434 13.4964 17.9712 13.4983C17.9849 13.4993 17.9947 13.4997 17.9998 13.4999L18.0031 13.5H18.25C18.3881 13.5 18.5 13.6119 18.5 13.75V16.25C18.5 16.3881 18.3881 16.5 18.25 16.5H14.5C14.4996 16.8493 14.4261 17.1946 14.2842 17.5138C14.1424 17.8329 13.9352 18.1189 13.6762 18.3532C13.4172 18.5875 13.112 18.765 12.7803 18.8743C12.4485 18.9836 12.0976 19.0222 11.75 18.9878C11.1207 18.9076 10.5431 18.598 10.128 18.1183C9.71277 17.6387 9.48917 17.1343 9.50001 16.5H5.75C5.61193 16.5 5.5 16.3881 5.5 16.25V13.75C5.5 13.6119 5.61193 13.5 5.75 13.5H5.99694L6.00019 13.4999C6.00528 13.4997 6.01505 13.4993 6.02883 13.4983C6.05655 13.4964 6.09942 13.4922 6.15218 13.4834C6.26005 13.4654 6.39625 13.4304 6.52639 13.3653C6.65458 13.3012 6.76755 13.2129 6.8496 13.0898C6.92956 12.9699 7 12.7875 7 12.5V11C7 8.40733 8.97334 6.27555 11.5 6.02469V5.25ZM10.5 16.5C10.5 16.8978 10.658 17.2794 10.9393 17.5607C11.2207 17.842 11.6022 18 12 18C12.3978 18 12.7794 17.842 13.0607 17.5607C13.342 17.2794 13.5 16.8978 13.5 16.5H10.5ZM12 7C9.79086 7 8 8.79086 8 11V12.4996C8 12.9621 7.88294 13.3426 7.68165 13.6445C7.48245 13.9433 7.22042 14.1363 6.97361 14.2597C6.80665 14.3432 6.6425 14.3971 6.5 14.432V15.5H17.5V14.432C17.3575 14.3971 17.1934 14.3432 17.0264 14.2597C16.7796 14.1363 16.5176 13.9433 16.3183 13.6445C16.1171 13.3426 16 12.9625 16 12.5V11.0002C16 8.79104 14.2091 7 12 7Z" fill="#36485C"/>
</svg>
