<svg width="24" height="24" viewBox="0 0 24 24" fill="none" xmlns="http://www.w3.org/2000/svg">
<path fill-rule="evenodd" clip-rule="evenodd" d="M9 3.75C9.82843 3.75 10.5 4.42157 10.5 5.25C10.5 6.07843 9.82843 6.75 9 6.75C8.17157 6.75 7.5 6.07843 7.5 5.25C7.5 4.42157 8.17157 3.75 9 3.75ZM15 3.75C15.8284 3.75 16.5 4.42157 16.5 5.25C16.5 6.07843 15.8284 6.75 15 6.75C14.1716 6.75 13.5 6.07843 13.5 5.25C13.5 4.42157 14.1716 3.75 15 3.75ZM9 8.25C9.82843 8.25 10.5 8.92157 10.5 9.75C10.5 10.5784 9.82843 11.25 9 11.25C8.17157 11.25 7.5 10.5784 7.5 9.75C7.5 8.92157 8.17157 8.25 9 8.25ZM15 8.25C15.8284 8.25 16.5 8.92157 16.5 9.75C16.5 10.5784 15.8284 11.25 15 11.25C14.1716 11.25 13.5 10.5784 13.5 9.75C13.5 8.92157 14.1716 8.25 15 8.25ZM9 12.75C9.82843 12.75 10.5 13.4216 10.5 14.25C10.5 15.0784 9.82843 15.75 9 15.75C8.17157 15.75 7.5 15.0784 7.5 14.25C7.5 13.4216 8.17157 12.75 9 12.75ZM15 12.75C15.8284 12.75 16.5 13.4216 16.5 14.25C16.5 15.0784 15.8284 15.75 15 15.75C14.1716 15.75 13.5 15.0784 13.5 14.25C13.5 13.4216 14.1716 12.75 15 12.75ZM9 17.25C9.82843 17.25 10.5 17.9216 10.5 18.75C10.5 19.5784 9.82843 20.25 9 20.25C8.17157 20.25 7.5 19.5784 7.5 18.75C7.5 17.9216 8.17157 17.25 9 17.25ZM15 17.25C15.8284 17.25 16.5 17.9216 16.5 18.75C16.5 19.5784 15.8284 20.25 15 20.25C14.1716 20.25 13.5 19.5784 13.5 18.75C13.5 17.9216 14.1716 17.25 15 17.25Z" fill="#36485C"/>
</svg>
